PathFileType	4	(X/Y/Z)	T1_P2_NoVision_NoMovement_3_0-734.trc
DataRate	CameraRate	NumFrames	NumMarkers	Units	OrigDataRate	OrigDataStartFrame	OrigNumFrames
60	60	4	27	m	60	458	734
Frame#	Time	RHip			RKnee			RAnkle			RBigToe			RSmallToe			RHeel			LHip			LKnee			LAnkle			LBigToe			LSmallToe			LHeel			Neck			Head			Nose			RShoulder			RElbow			RWrist			RThumb			RIndex			RPinky			LShoulder			LElbow			LWrist			LThumb			LIndex			LPinky		
		X1	Y1	Z1	X2	Y2	Z2	X3	Y3	Z3	X4	Y4	Z4	X5	Y5	Z5	X6	Y6	Z6	X7	Y7	Z7	X8	Y8	Z8	X9	Y9	Z9	X10	Y10	Z10	X11	Y11	Z11	X12	Y12	Z12	X13	Y13	Z13	X14	Y14	Z14	X15	Y15	Z15	X16	Y16	Z16	X17	Y17	Z17	X18	Y18	Z18	X19	Y19	Z19	X20	Y20	Z20	X21	Y21	Z21	X22	Y22	Z22	X23	Y23	Z23	X24	Y24	Z24	X25	Y25	Z25	X26	Y26	Z26	X27	Y27	Z27
459	7.65	461.38281345204723	3649.775717762067	542.1645137606116	855.9123525304728	3681.042863271687	541.8570789523352	1246.393709323593	3749.344782770356	617.9070991505482	1311.7857772940447	3634.388050720749	567.668998519893	1293.5710931729116	3667.2358317925027	518.2203126229376	1277.5772001731252	3738.3291560210164	627.5638660058489	456.5041553758209	3556.21492308612	746.0467890883813	851.2489459386189	3552.1127183913372	741.041803049769	1219.3170503981153	3615.7545401886855	729.265828828817	1289.1143053180201	3485.798579832445	680.1368285182114	1265.4233578413034	3450.7705163430473	714.1569692954353	1261.0603806636109	3618.0075709485773	708.9333807663461	-117.63814812530083	3581.4391648473606	648.3390834760519	-373.5822669480211	3504.161219807343	629.1845378424832	-231.351287161711	3487.0663149097545	619.8312579635916	-44.2420066752346	3744.839862808308	544.15583201653	203.92422808406002	3683.490350749469	442.5132616088835	354.5600190473962	3493.124008487409	512.4878452675056	418.0301551014245	3465.252165050753	586.7044847616489	434.7451490329411	3485.717138698473	615.3361732988368	465.6426339249327	3501.3168822166194	611.8875586293478	-32.4297040936301	3567.412531006648	819.5253623028536	228.25298602820058	3525.076228640465	815.0451779121448	365.19520930430247	3425.929332866398	615.824380014545	416.1254748545133	3438.038263587764	516.8936375124346	440.11821338354207	3461.935026532142	523.1264946615365	456.7888676600903	3428.6797495954884	583.567554593443
460	7.666666666666667	462.61124548650804	3652.028289084081	543.5956053308387	856.3248585182155	3680.503492401261	540.5479661032545	1247.6271079875535	3750.305633916385	618.4008806297021	1311.3309325034722	3630.8744961172793	565.7508877561967	1296.2736990989274	3669.2618271513206	518.9888749430592	1277.7140404315483	3739.9627051427374	627.6866895539667	456.9309841310446	3557.2573861217297	745.6609591806973	850.861438131033	3547.6837298100786	739.6549037954999	1218.6799918762613	3613.648074349894	727.8192895128346	1291.5999994646475	3492.268292328942	681.7498292535375	1265.5752802987415	3451.144862817993	714.2604667888623	1259.1414499626114	3612.8544726690243	707.771798522552	-117.69895300132711	3581.0798397068274	648.1976233041712	-373.59585058177925	3504.1493942544143	629.1658946258397	-231.3170865988776	3486.91758178458	619.6949715560033	-44.20528105453692	3744.7963451974074	544.2433290459907	204.68790150654402	3682.8297921898784	442.0411103426069	355.29337375422546	3489.746374046796	510.44301568896765	417.6000658889477	3455.8575971853907	583.6546285568905	434.72931925870455	3479.2252449557254	611.6522006738599	463.57922791842736	3490.348522678633	606.8026950072557	-32.32835022134377	3567.481099569496	819.660723404635	227.7822572022003	3523.0583284484164	814.1761656438113	365.06088351111396	3425.6878228242645	615.7150266328916	415.21355855283315	3429.760575541456	513.5743102354638	437.9432172501107	3449.8797413987254	518.8898975796337	456.7852235407308	3425.512499419836	582.7705608869461
461	7.683333333333334	463.7894167363256	3653.1477653058305	544.1120732687981	857.4496467288348	3681.078373284684	540.1313076977355	1248.7393178290563	3751.02101109483	618.8407287150438	1310.7765166798174	3629.8168653550174	563.9897415870807	1299.617201781459	3670.6309717169715	519.2857855241846	1277.9622207113819	3739.5195438622045	627.8758538629324	457.3505933525347	3556.965932083514	745.0030709526565	849.8003053658854	3545.52816908319	738.8266046370771	1218.1880155639822	3614.08066617403	727.8471664216938	1296.307717419634	3502.8801902035393	686.4100089991227	1265.5844935952687	3451.274852849845	714.2724477062069	1257.3038883833008	3609.650197466487	707.2700447866044	-117.72617661033289	3579.453527084481	647.7016988366497	-373.61548151653983	3504.166183701229	629.161651110556	-231.29894043357697	3486.7719306306158	619.5587172569317	-44.261904781606574	3745.036300472109	544.3881267370807	205.32458507518956	3681.58600187346	441.44359672871485	356.54689997290706	3487.69707013478	509.06837447253935	418.50541866405445	3451.5767858805543	583.2178571472579	434.6161480703122	3474.4393221115233	608.267981565478	462.3957182250167	3478.368373884956	600.7953586408003	-32.46790186688061	3567.0404541316043	819.296664015247	226.79092280191853	3515.8400354284895	811.5441837519076	364.60047890510305	3423.993967941444	614.3354706939638	413.2734019963156	3416.9491365896997	507.93734799813234	436.2932922163287	3441.0350285008417	515.5771715202077	457.6586365242189	3424.2451673155806	582.7267636527359
462	7.7	465.334682415974	3653.9541398591336	544.4422754433836	859.6907447554859	3682.864989232042	540.837369074828	1249.7642968913997	3751.379353578619	619.1904856681335	1310.5028058097218	3630.1690872846866	562.3855985971429	1302.3939627261375	3671.20931662896	519.1634592397902	1277.5357333940974	3736.018206864462	627.6145735665865	458.52874895573456	3553.8901145869813	743.761741562575	849.2019100108248	3545.1249281992496	738.5317258541735	1217.7073501691116	3614.783918849954	728.908476633851	1300.0668591096382	3509.859256162818	690.2861460773321	1265.4992624553602	3451.2366310544794	714.2253520921286	1257.0844459090763	3609.974478870762	707.9328270917129	-117.60746515268374	3576.3249007191607	646.8106238739041	-373.63204861530704	3504.1860362784373	629.1537815845415	-231.29639734731444	3486.645252895993	619.4304723677335	-44.31284320260961	3745.5361862325935	544.1832454692903	205.9377273204821	3680.0410449653727	440.67513552663746	356.889842460059	3485.8326059799865	507.5458414766728	419.12172778605685	3448.545627040698	581.6299067467843	434.2124669284395	3470.658254211352	605.4119202798515	461.578145599287	3468.016231528225	595.7990703737232	-32.726440854717026	3564.8109990275116	817.3220170851347	226.27415406280107	3504.4694034027816	806.0843530746408	363.86125387507155	3420.22780057857	611.0727770442285	409.5793892785772	3397.0428663118746	500.29266166202194	435.51259662448285	3437.618465774942	513.7736497498319	458.631265549455	3424.4984593721974	583.1598890297022
